<svg width="120" height="33" viewBox="0 0 120 33" fill="none" xmlns="http://www.w3.org/2000/svg">
<g clip-path="url(#clip0_3_5)">
<path d="M16.5769 7.932C16.5094 7.842 16.2734 7.672 15.8688 7.422C15.4641 7.172 14.9584 6.912 14.3514 6.64C13.7445 6.368 13.081 6.13 12.362 5.926C11.66 5.72446 10.9339 5.62149 10.204 5.62C8.22547 5.62 7.23671 6.289 7.23671 7.626C7.23671 8.034 7.34283 8.374 7.55704 8.646C7.77026 8.918 8.08464 9.162 8.50117 9.377C8.91671 9.592 9.43935 9.791 10.0681 9.972L11.4625 10.365L12.2608 10.584C13.4073 10.901 14.4407 11.247 15.363 11.621C16.2843 11.995 17.0658 12.46 17.7065 13.015C18.3456 13.5682 18.8527 14.2597 19.1901 15.038C19.5372 15.831 19.7127 16.783 19.7127 17.894C19.7127 19.254 19.4598 20.404 18.9541 21.345C18.4483 22.285 17.7789 23.045 16.9478 23.623C16.1147 24.201 15.1607 24.62 14.0817 24.881C13.0027 25.141 11.8899 25.272 10.7435 25.272C8.91692 25.2615 7.10085 24.9926 5.34844 24.473C4.47175 24.213 3.62282 23.901 2.80266 23.538C2.00724 23.1895 1.24507 22.7684 0.525635 22.28L2.9534 17.418C3.04266 17.531 3.33522 17.747 3.8301 18.064C4.32398 18.381 4.93688 18.699 5.66778 19.016C6.3977 19.333 7.21291 19.616 8.11241 19.866C9.01092 20.116 9.92134 20.24 10.8437 20.24C12.7994 20.24 13.7772 19.64 13.7772 18.438C13.7772 17.985 13.6304 17.611 13.3389 17.316C13.0463 17.021 12.6417 16.755 12.125 16.517C11.6402 16.2982 11.142 16.1111 10.6334 15.957L8.94547 15.462L7.97754 15.174C6.87572 14.834 5.92068 14.466 5.11142 14.069C4.30216 13.672 3.63373 13.213 3.10514 12.692C2.58635 12.1851 2.18358 11.5701 1.92497 10.89C1.66613 10.21 1.53721 9.417 1.53721 8.51C1.53721 7.24 1.77324 6.119 2.2453 5.144C2.70041 4.19108 3.35634 3.34982 4.16729 2.679C5.00085 1.99721 5.95674 1.48353 6.98282 1.166C8.04993 0.826 9.17952 0.656 10.3716 0.656C11.2027 0.656 12.0238 0.736 12.8331 0.894C13.6423 1.053 14.4179 1.257 15.1597 1.506C15.9015 1.756 16.5927 2.039 17.2324 2.356C17.8741 2.673 18.4641 2.991 19.0037 3.308L16.5769 7.932ZM39.8073 25H34.4123V14.97C34.4123 13.814 34.1871 12.964 33.7379 12.42C33.2876 11.876 32.6698 11.604 31.8833 11.604C31.5679 11.604 31.2258 11.678 30.8549 11.825C30.4647 11.9838 30.1009 12.2016 29.7759 12.471C29.4165 12.7653 29.0936 13.102 28.8139 13.474C28.5193 13.8638 28.2914 14.3005 28.1395 14.766V25H22.7445V0.18H28.1395V10.142C28.7651 9.10199 29.6563 8.25063 30.72 7.677C31.7871 7.099 32.9613 6.81 34.2437 6.81C35.4347 6.81 36.3957 7.02 37.1266 7.439C37.8565 7.859 38.4189 8.391 38.8126 9.037C39.2053 9.683 39.4701 10.408 39.605 11.213C39.7399 12.018 39.8073 12.805 39.8073 13.576V25ZM52.0453 25.34C50.5389 25.34 49.1961 25.09 48.0159 24.592C46.8357 24.093 45.841 23.419 45.0308 22.569C44.2231 21.721 43.5978 20.714 43.1941 19.611C42.7772 18.4855 42.5656 17.2934 42.5693 16.092C42.5693 14.868 42.7775 13.695 43.1941 12.573C43.5981 11.4699 44.2238 10.4629 45.0318 9.615C45.841 8.765 46.8357 8.085 48.0159 7.575C49.1961 7.065 50.5389 6.81 52.0453 6.81C53.5518 6.81 54.8886 7.065 56.0579 7.575C57.2271 8.085 58.2159 8.765 59.0251 9.615C59.8345 10.4651 60.4653 11.4712 60.8797 12.573C61.307 13.696 61.5242 14.8892 61.5204 16.092C61.5241 17.2934 61.3124 18.4855 60.8956 19.611C60.4918 20.714 59.8665 21.721 59.0589 22.569C58.2496 23.419 57.2539 24.093 56.0737 24.592C54.8936 25.091 53.5518 25.34 52.0453 25.34ZM48.0992 16.092C48.0992 17.497 48.4701 18.625 49.2119 19.475C49.9537 20.325 50.8979 20.75 52.0443 20.75C52.5801 20.7558 53.1103 20.6396 53.5954 20.41C54.0675 20.183 54.478 19.866 54.8251 19.458C55.1901 19.0214 55.4706 18.5198 55.6523 17.979C55.8593 17.372 55.9619 16.7338 55.9557 16.092C55.9557 14.687 55.5848 13.559 54.843 12.709C54.1012 11.859 53.168 11.434 52.0443 11.434C51.5099 11.4297 50.9809 11.543 50.4945 11.7662C50.008 11.9893 49.5757 12.3169 49.2278 12.726C48.8636 13.1627 48.5837 13.6644 48.4027 14.205C48.1956 14.812 48.093 15.4502 48.0992 16.092ZM75.6456 11.808C74.3415 11.831 73.1613 12.046 72.1051 12.454C71.0489 12.862 70.2843 13.474 69.8122 14.29V25H64.4172V7.15H69.3739V10.754C69.9808 9.553 70.7623 8.612 71.7174 7.932C72.6724 7.252 73.6899 6.901 74.7689 6.878H75.3084C75.4205 6.878 75.5336 6.889 75.6456 6.912V11.808ZM89.6033 24.048C88.7739 24.3959 87.9236 24.6912 87.0575 24.932C86.1025 25.204 85.1415 25.34 84.1746 25.34C83.5002 25.34 82.8655 25.255 82.2704 25.085C81.6966 24.9267 81.1621 24.6487 80.7015 24.269C80.2523 23.895 79.8982 23.402 79.6404 22.79C79.3805 22.178 79.2516 21.441 79.2516 20.58V11.264H76.9924V7.15H79.2516V1.472H84.6466V7.15H88.2546V11.264H84.6466V18.71C84.6466 19.3 84.7924 19.724 85.085 19.985C85.3775 20.245 85.7484 20.376 86.1977 20.376C86.6023 20.376 87.0179 20.308 87.4453 20.172C87.8718 20.036 88.2437 19.889 88.558 19.73L89.6033 24.048ZM91.8615 0.18H97.2566V18.642C97.2566 20.002 97.8298 20.682 98.9762 20.682C99.246 20.682 99.5435 20.642 99.8698 20.563C100.196 20.483 100.495 20.365 100.763 20.206L101.471 24.286C100.797 24.603 100.022 24.853 99.1448 25.034C98.2681 25.215 97.448 25.306 96.6833 25.306C95.1322 25.306 93.9412 24.898 93.1091 24.082C92.277 23.266 91.8615 22.087 91.8615 20.546V0.18ZM103.223 27.686C103.673 27.845 104.095 27.958 104.487 28.026C104.838 28.09 105.193 28.1241 105.549 28.128C106.202 28.128 106.708 27.901 107.067 27.448C107.427 26.995 107.753 26.178 108.045 25L101.301 7.15H106.864L110.978 20.342L114.519 7.15H119.577L112.833 27.89C112.387 29.3254 111.502 30.5813 110.304 31.477C109.09 32.395 107.652 32.854 105.988 32.854C105.53 32.8533 105.073 32.8135 104.622 32.735C104.145 32.6508 103.676 32.5199 103.224 32.344L103.223 27.686Z" fill="#ffffff"/>
</g>
<defs>
<clipPath id="clip0_3_5">
<rect width="120" height="33" fill="white"/>
</clipPath>
</defs>
</svg>