<svg width="170" height="170" viewBox="0 0 170 170" fill="none" xmlns="http://www.w3.org/2000/svg">
<rect width="170" height="170" rx="85" fill="white"/>
<g clip-path="url(#clip0_3_5)">
<path d="M41.715 76.932C41.647 76.842 41.409 76.672 41.001 76.422C40.593 76.172 40.083 75.912 39.471 75.64C38.859 75.368 38.19 75.13 37.465 74.926C36.7572 74.7245 36.025 74.6215 35.289 74.62C33.294 74.62 32.297 75.289 32.297 76.626C32.297 77.034 32.404 77.374 32.62 77.646C32.835 77.918 33.152 78.162 33.572 78.377C33.991 78.592 34.518 78.791 35.152 78.972L36.558 79.365L37.363 79.584C38.519 79.901 39.561 80.247 40.491 80.621C41.42 80.995 42.208 81.46 42.854 82.015C43.4985 82.5682 44.0098 83.2597 44.35 84.038C44.7 84.831 44.877 85.783 44.877 86.894C44.877 88.254 44.622 89.404 44.112 90.345C43.602 91.285 42.927 92.045 42.089 92.623C41.249 93.201 40.287 93.62 39.199 93.881C38.111 94.141 36.989 94.272 35.833 94.272C33.9912 94.2615 32.16 93.9926 30.393 93.473C29.509 93.213 28.653 92.901 27.826 92.538C27.024 92.1895 26.2555 91.7684 25.53 91.28L27.978 86.418C28.068 86.531 28.363 86.747 28.862 87.064C29.36 87.381 29.978 87.699 30.715 88.016C31.451 88.333 32.273 88.616 33.18 88.866C34.086 89.116 35.004 89.24 35.934 89.24C37.906 89.24 38.892 88.64 38.892 87.438C38.892 86.985 38.744 86.611 38.45 86.316C38.155 86.021 37.747 85.755 37.226 85.517C36.7373 85.2982 36.2349 85.1111 35.722 84.957L34.02 84.462L33.044 84.174C31.933 83.834 30.97 83.466 30.154 83.069C29.338 82.672 28.664 82.213 28.131 81.692C27.6079 81.1851 27.2018 80.5701 26.941 79.89C26.68 79.21 26.55 78.417 26.55 77.51C26.55 76.24 26.788 75.119 27.264 74.144C27.7229 73.1911 28.3843 72.3498 29.202 71.679C30.0425 70.9972 31.0064 70.4835 32.041 70.166C33.117 69.826 34.256 69.656 35.458 69.656C36.296 69.656 37.124 69.736 37.94 69.894C38.756 70.053 39.538 70.257 40.286 70.506C41.034 70.756 41.731 71.039 42.376 71.356C43.023 71.673 43.618 71.991 44.162 72.308L41.715 76.932ZM65.139 94H59.699V83.97C59.699 82.814 59.472 81.964 59.019 81.42C58.565 80.876 57.942 80.604 57.149 80.604C56.831 80.604 56.486 80.678 56.112 80.825C55.7186 80.9838 55.3518 81.2016 55.024 81.471C54.6617 81.7653 54.336 82.102 54.054 82.474C53.757 82.8638 53.5272 83.3005 53.374 83.766V94H47.934V69.18H53.374V79.142C54.0048 78.102 54.9035 77.2506 55.976 76.677C57.052 76.099 58.236 75.81 59.529 75.81C60.73 75.81 61.699 76.02 62.436 76.439C63.172 76.859 63.739 77.391 64.136 78.037C64.532 78.683 64.799 79.408 64.935 80.213C65.071 81.018 65.139 81.805 65.139 82.576V94ZM77.479 94.34C75.96 94.34 74.606 94.09 73.416 93.592C72.226 93.093 71.223 92.419 70.406 91.569C69.5917 90.721 68.9612 89.714 68.554 88.611C68.1337 87.4855 67.9203 86.2934 67.924 85.092C67.924 83.868 68.134 82.695 68.554 81.573C68.9615 80.4699 69.5923 79.4629 70.407 78.615C71.223 77.765 72.226 77.085 73.416 76.575C74.606 76.065 75.96 75.81 77.479 75.81C78.998 75.81 80.346 76.065 81.525 76.575C82.704 77.085 83.701 77.765 84.517 78.615C85.3331 79.4651 85.9691 80.4712 86.387 81.573C86.8179 82.696 87.0369 83.8892 87.033 85.092C87.0368 86.2934 86.8233 87.4855 86.403 88.611C85.9959 89.714 85.3654 90.721 84.551 91.569C83.735 92.419 82.731 93.093 81.541 93.592C80.351 94.091 78.998 94.34 77.479 94.34ZM73.5 85.092C73.5 86.497 73.874 87.625 74.622 88.475C75.37 89.325 76.322 89.75 77.478 89.75C78.0183 89.7558 78.5529 89.6396 79.042 89.41C79.518 89.183 79.932 88.866 80.282 88.458C80.65 88.0214 80.9329 87.5198 81.116 86.979C81.3248 86.372 81.4283 85.7338 81.422 85.092C81.422 83.687 81.048 82.559 80.3 81.709C79.552 80.859 78.611 80.434 77.478 80.434C76.9391 80.4297 76.4058 80.543 75.9153 80.7662C75.4247 80.9893 74.9888 81.3169 74.638 81.726C74.2708 82.1627 73.9886 82.6644 73.806 83.205C73.5972 83.812 73.4938 84.4502 73.5 85.092ZM101.276 80.808C99.961 80.831 98.771 81.046 97.706 81.454C96.641 81.862 95.87 82.474 95.394 83.29V94H89.954V76.15H94.952V79.754C95.564 78.553 96.352 77.612 97.315 76.932C98.278 76.252 99.304 75.901 100.392 75.878H100.936C101.049 75.878 101.163 75.889 101.276 75.912V80.808ZM115.35 93.048C114.514 93.3959 113.656 93.6912 112.783 93.932C111.82 94.204 110.851 94.34 109.876 94.34C109.196 94.34 108.556 94.255 107.956 94.085C107.377 93.9267 106.838 93.6487 106.374 93.269C105.921 92.895 105.564 92.402 105.304 91.79C105.042 91.178 104.912 90.441 104.912 89.58V80.264H102.634V76.15H104.912V70.472H110.352V76.15H113.99V80.264H110.352V87.71C110.352 88.3 110.499 88.724 110.794 88.985C111.089 89.245 111.463 89.376 111.916 89.376C112.324 89.376 112.743 89.308 113.174 89.172C113.604 89.036 113.979 88.889 114.296 88.73L115.35 93.048ZM117.627 69.18H123.067V87.642C123.067 89.002 123.645 89.682 124.801 89.682C125.073 89.682 125.373 89.642 125.702 89.563C126.031 89.483 126.332 89.365 126.603 89.206L127.317 93.286C126.637 93.603 125.855 93.853 124.971 94.034C124.087 94.215 123.26 94.306 122.489 94.306C120.925 94.306 119.724 93.898 118.885 93.082C118.046 92.266 117.627 91.087 117.627 89.546V69.18ZM129.083 96.686C129.537 96.845 129.962 96.958 130.358 97.026C130.712 97.09 131.07 97.1241 131.429 97.128C132.087 97.128 132.597 96.901 132.959 96.448C133.322 95.995 133.651 95.178 133.945 94L127.145 76.15H132.755L136.903 89.342L140.473 76.15H145.573L138.773 96.89C138.324 98.3254 137.431 99.5813 136.223 100.477C134.999 101.395 133.549 101.854 131.871 101.854C131.409 101.853 130.949 101.813 130.494 101.735C130.012 101.651 129.54 101.52 129.084 101.344L129.083 96.686Z" fill="#34313D"/>
</g>
<defs>
<clipPath id="clip0_3_5">
<rect width="121" height="33" fill="white" transform="translate(25 69)"/>
</clipPath>
</defs>
</svg>
